<svg width="395" height="395" viewBox="0 0 395 395" fill="none" xmlns="http://www.w3.org/2000/svg">
<path d="M394.545 184.009C394.846 188.467 395 192.966 395 197.5C395 202.367 394.823 207.194 394.477 211.973V212H394.475C387.051 314.306 301.7 395 197.5 395C88.4238 395 0 306.576 0 197.5C0 88.4238 88.4238 0 197.5 0C197.667 0 197.833 0.000563672 198 0.000976562V0H395L394.545 184.009Z" fill="#FE395D"/>
<path d="M231.849 115.032C246.049 114.526 260.262 114.312 274.462 114.752C281.862 135.126 290.862 154.859 298.609 175.099C313.089 210.046 326.902 245.272 341.502 280.166C325.756 280.619 310.009 280.526 294.262 280.286C289.822 270.792 286.636 260.766 282.169 251.286C265.289 251.206 248.409 251.072 231.529 251.152C231.516 239.352 231.449 227.539 231.902 215.739C244.676 215.699 257.449 215.446 270.209 214.912C256.942 181.819 244.742 148.286 231.849 115.032Z" fill="white"/>
<path d="M53.5477 116.006C69.4411 115.832 85.3344 115.992 101.214 116.632C113.654 137.272 126.001 157.966 138.654 178.459C150.774 157.659 163.868 137.419 176.054 116.659C191.841 115.939 207.668 115.886 223.468 116.006C223.534 170.419 223.534 224.846 223.468 279.259C208.748 279.339 194.028 279.286 179.294 279.286C178.868 257.632 179.601 235.952 178.828 214.299C178.868 204.766 178.761 195.246 178.934 185.726C165.628 207.099 151.561 228.006 138.148 249.299C124.708 228.552 111.201 207.846 97.6944 187.139C97.0277 217.859 97.3477 248.579 97.1611 279.299C82.6277 279.272 68.0811 279.352 53.5477 279.259C53.4811 224.846 53.4811 170.419 53.5477 116.006Z" fill="white"/>
<path d="M306.002 32C306.002 24.268 312.27 18 320.002 18H377.002V48H320.002C312.27 48 306.002 41.732 306.002 34V32Z" fill="white"/>
<path d="M361.002 89C353.27 89 347.002 82.732 347.002 75L347.002 18L377.002 18L377.002 75C377.002 82.732 370.734 89 363.002 89L361.002 89Z" fill="white"/>
</svg>
